<svg width="16" height="16" viewBox="0 0 16 16" fill="none" xmlns="http://www.w3.org/2000/svg">
<path d="M7.67598 1.42802L6.83598 0.924683L6.67598 1.89068C6.42131 3.41602 5.37931 4.83335 4.22998 5.82935C1.97998 7.78002 1.48731 9.90002 2.18398 11.65C2.85064 13.3247 4.54264 14.4713 6.25998 14.6627L6.65731 14.7067C5.67464 14.106 5.04398 12.7027 5.26398 11.654C5.48131 10.6234 6.22264 9.65802 7.64664 8.76735L8.36464 8.31935L8.63264 9.12268C8.79064 9.59735 9.06398 9.97868 9.34198 10.366C9.47531 10.5527 9.61064 10.7413 9.73464 10.942C10.1633 11.6387 10.2766 12.4134 9.99998 13.182C9.74798 13.8807 9.33264 14.43 8.75998 14.7347L9.40664 14.6627C11.0186 14.4833 12.202 13.932 12.9706 13.01C13.7326 12.096 14 10.9193 14 9.66668C14 8.50002 13.5206 7.29735 12.9553 6.29668C12.2926 5.12468 11.428 4.15135 10.484 3.20802C10.3206 3.53468 10.3333 3.66668 9.99731 4.19135C9.56098 3.03266 8.742 2.05773 7.67598 1.42802Z" fill="#595C5D"/>
</svg>
