<svg width="24" height="24" viewBox="0 0 24 24" fill="none" xmlns="http://www.w3.org/2000/svg">
<path d="M11.514 2.14202L10.254 1.38702L10.014 2.83602C9.63203 5.12402 8.06903 7.25002 6.34503 8.74402C2.97003 11.67 2.23103 14.85 3.27603 17.475C4.27603 19.987 6.81403 21.707 9.39003 21.994L9.98603 22.06C8.51203 21.159 7.56603 19.054 7.89603 17.481C8.22203 15.935 9.33403 14.487 11.47 13.151L12.547 12.479L12.949 13.684C13.186 14.396 13.596 14.968 14.013 15.549C14.213 15.829 14.416 16.112 14.602 16.413C15.245 17.458 15.415 18.62 15 19.773C14.622 20.821 13.999 21.645 13.14 22.102L14.11 21.994C16.528 21.725 18.303 20.898 19.456 19.515C20.599 18.144 21 16.379 21 14.5C21 12.75 20.281 10.946 19.433 9.44502C18.439 7.68702 17.142 6.22702 15.726 4.81202C15.481 5.30202 15.5 5.50002 14.996 6.28702C14.3415 4.54898 13.1131 3.0866 11.514 2.14202Z" fill="white"/>
</svg>
