<svg width="24" height="24" viewBox="0 0 24 24" fill="none" xmlns="http://www.w3.org/2000/svg">
<path d="M5.658 11.002L4.188 14.31C2.332 18.484 1.405 20.571 2.418 21.584C3.431 22.597 5.516 21.669 9.69 19.814L13 18.342C15.517 17.223 16.776 16.664 16.976 15.585C17.176 14.506 16.202 13.532 14.254 11.585L12.416 9.746C10.469 7.798 9.495 6.824 8.416 7.025C7.337 7.225 6.778 8.484 5.659 11.001M6.5 10.5L13.5 17.5M4.5 15.5L8.5 19.5M16 8L19 5M14.197 2C14.597 2.667 14.916 4.4 13 6M22 9.803C21.333 9.403 19.6 9.084 18 11M18 2V2.02M22 6V6.02M21 13V13.02M11 3V3.02" stroke="#FFA617" stroke-width="2" stroke-linecap="round" stroke-linejoin="round"/>
</svg>
