<svg width="25" height="25" viewBox="0 0 25 25" fill="none" xmlns="http://www.w3.org/2000/svg">
<path d="M11.5 23.8445V20.6735L9.8215 21.6695L9 21.1525V20.038L11.5 18.545V16.461L9.5 17.6865V15.4785L7.5 16.5255V19.5205L6.6735 20.1355L6 19.58V17.574L3.213 19.135L2 18.6355V17.371L4.8425 15.786L3 14.875V13.715L4.0615 13.1515L6.6685 14.6855L8.4745 13.6435L8.4335 13.611L6.601 12.5495L8.385 11.4355L6.5965 10.394L3.99 11.92L3 11.4355V10.282L4.771 9.293L2 7.7665V6.502L3.1605 5.945L6 7.5435V5.5055L6.7425 4.942L7.714 5.532L7.686 8.5845L9.5225 9.6455L9.539 7.49L11.5 8.5395V6.456L9 4.962V3.855L9.8215 3.33L11.5 4.326V1.162L12.497 0.5L13.5 1.162V4.326L15.453 3.3105L16.5 3.92V4.916L13.5 6.456V8.5395L15.5 7.406V9.673L17.5 8.631V5.369L18.2275 4.936L19 5.3685V7.452L21.921 5.912L23 6.521V7.7005L20.2525 9.2855L22 10.2625V11.3895L21.085 11.8875L18.4215 10.3085L16.582 11.4815L18.3565 12.5955L16.527 13.6565L18.413 14.6525L21.1075 13.1595L22 13.7675V14.8425L20.34 15.786L23 17.371V18.616L21.739 19.1345L19 17.6405V19.618L18.24 20.1425L17.5 19.618V16.617L15.5 15.5105V17.5945L13.5 16.4605V18.5445L16 20.0375V21.217L15.1765 21.669L13.5 20.674V23.845L12.497 24.5L11.5 23.8445ZM10.767 12.546L11.71 14H13.467L14.2735 12.546L13.4215 11H11.6645L10.767 12.546Z" fill="#1ABAFF"/>
</svg>
