<svg width="16" height="16" viewBox="0 0 16 16" fill="none" xmlns="http://www.w3.org/2000/svg">
<path d="M10.75 2C11.8612 2 12.7918 2.41111 13.542 3.23333C14.2923 4.05556 14.6672 5.03333 14.6667 6.16667C14.6667 6.36667 14.6556 6.564 14.6334 6.75867C14.6112 6.95333 14.5723 7.14489 14.5167 7.33333H10.35L9.23337 5.63333H8.03337L7.13337 8.5L6.35004 7.33333H1.48337C1.42782 7.14444 1.38893 6.95289 1.36671 6.75867C1.34449 6.56444 1.33337 6.37267 1.33337 6.18333C1.33337 5.03889 1.7056 4.05556 2.45004 3.23333C3.19448 2.41111 4.12226 2 5.23337 2C5.76671 2 6.2696 2.10556 6.74204 2.31667C7.21448 2.52778 7.63382 2.82222 8.00004 3.2C8.3556 2.82222 8.7696 2.52778 9.24204 2.31667C9.71448 2.10556 10.2172 2 10.75 2ZM7.98337 14.6333L2.46671 9.08333C2.40004 9.01667 2.33893 8.95 2.28337 8.88333C2.22782 8.81667 2.17226 8.74444 2.11671 8.66667H5.63337L6.78337 10.3833H7.96671L8.86671 7.5L9.63337 8.66667H13.8667L13.7 8.86667L13.5334 9.06667L7.98337 14.6333Z" fill="#595C5D"/>
</svg>
