<svg width="24" height="24" viewBox="0 0 24 24" fill="none" xmlns="http://www.w3.org/2000/svg">
<path d="M16.125 3C17.7917 3 19.1877 3.61667 20.313 4.85C21.4383 6.08333 22.0007 7.55 22 9.25C22 9.55 21.9833 9.846 21.95 10.138C21.9167 10.43 21.8583 10.7173 21.775 11H15.525L13.85 8.45H12.05L10.7 12.75L9.525 11H2.225C2.14167 10.7167 2.08333 10.4293 2.05 10.138C2.01667 9.84667 2 9.559 2 9.275C2 7.55833 2.55833 6.08333 3.675 4.85C4.79167 3.61667 6.18333 3 7.85 3C8.65 3 9.40433 3.15833 10.113 3.475C10.8217 3.79167 11.4507 4.23333 12 4.8C12.5333 4.23333 13.1543 3.79167 13.863 3.475C14.5717 3.15833 15.3257 3 16.125 3ZM11.975 21.95L3.7 13.625C3.6 13.525 3.50833 13.425 3.425 13.325C3.34167 13.225 3.25833 13.1167 3.175 13H8.45L10.175 15.575H11.95L13.3 11.25L14.45 13H20.8L20.3 13.6L11.975 21.95Z" fill="white"/>
</svg>
